<svg width="759" height="546" viewBox="0 0 759 546" fill="none" xmlns="http://www.w3.org/2000/svg">
<g clip-path="url(#clip0)">
<path d="M546.184 323.906L552.155 320.329C552.722 319.98 553.282 319.608 553.857 319.258C541.051 317.12 529.381 310.801 520.779 301.347C512.177 291.893 507.158 279.87 506.554 267.269C506.115 258.603 507.803 249.96 511.478 242.051C514.9 234.651 519.952 228.07 526.279 222.771C532.605 217.473 540.052 213.586 548.094 211.385L547.799 234.198L560.707 209.368C560.76 209.36 560.814 209.36 560.867 209.368C568.348 209.029 575.824 210.123 582.869 212.589C589.913 215.055 596.389 218.844 601.925 223.739C607.461 228.635 611.95 234.541 615.135 241.12C618.32 247.7 620.139 254.824 620.488 262.086C620.536 263.141 620.488 264.181 620.488 265.19C624.98 260.216 629.056 254.885 631.758 249.042C637.225 237.209 637.353 223.808 636.898 207.521C636.034 175.241 634.604 142.721 632.733 110.294C619.255 108.841 606.752 102.769 597.471 93.1708C588.19 83.572 582.739 71.075 582.097 57.9248C582.017 56.2255 582.041 54.5572 582.097 52.8966C582.097 52.4854 582.097 52.0664 582.161 51.6551C582.273 50.0489 582.425 48.4582 582.68 46.8908C582.68 46.6269 582.776 46.3786 582.824 46.1148C583.059 44.7853 583.338 43.4714 583.664 42.173C583.791 41.6919 583.911 41.203 584.047 40.7219C584.447 39.3097 584.847 37.9207 585.398 36.5473C585.566 36.0895 585.766 35.6472 585.942 35.1971C586.349 34.1884 586.789 33.1952 587.252 32.2097C587.5 31.6898 587.74 31.1777 588.004 30.6578C588.068 30.5259 588.124 30.394 588.196 30.2621C594.214 18.7224 604.207 9.59478 616.438 4.46584C628.67 -0.6631 642.366 -1.46906 655.146 2.18805L654.762 31.876L667.551 7.35591C678.041 13.185 686.337 22.1175 691.226 32.8486C696.115 43.5798 697.342 55.5474 694.728 67.0035H694.792C694.704 67.3992 694.576 67.7794 694.48 68.1674C694.304 68.8968 694.112 69.6185 693.904 70.3401C693.633 71.2635 693.329 72.1713 693.017 73.0792C692.777 73.7543 692.545 74.4449 692.282 75.1122C691.898 76.0899 691.482 77.0443 691.019 77.9988C690.763 78.5574 690.531 79.1239 690.219 79.6748C689.489 81.1026 688.69 82.4993 687.822 83.865C687.526 84.3383 687.19 84.7884 686.878 85.2617C686.271 86.1773 685.655 87.0852 684.992 87.9698C684.584 88.5129 684.145 89.0328 683.713 89.5682C683.09 90.3442 682.45 91.1201 681.787 91.8263C681.315 92.3461 680.836 92.8583 680.34 93.3782C679.645 94.092 678.925 94.7826 678.182 95.4655C677.694 95.9233 677.199 96.3811 676.687 96.8156C675.848 97.5373 674.969 98.2279 674.081 98.903C673.634 99.2444 673.202 99.6013 672.739 99.9272C671.39 100.9 669.997 101.813 668.558 102.666C668.286 102.822 667.999 102.953 667.759 103.109C666.56 103.799 665.361 104.443 664.074 105.049C663.539 105.305 662.979 105.53 662.427 105.77C661.396 106.22 660.357 106.655 659.294 107.05C658.679 107.275 658.047 107.485 657.416 107.695C656.369 108.044 655.306 108.362 654.219 108.649C653.579 108.82 652.948 108.99 652.3 109.138C651.133 109.409 649.942 109.634 648.743 109.828C648.663 109.828 648.591 109.828 648.511 109.875C649.3 123.552 650.001 137.238 650.614 150.931C654.013 144.155 658.803 138.126 664.69 133.212C670.576 128.298 677.434 124.603 684.844 122.354C692.253 120.105 700.058 119.35 707.78 120.134C715.501 120.918 722.976 123.226 729.745 126.915L719.666 153.724L740.4 134.395C751.499 144.271 758.111 158.017 758.784 172.619C759.048 177.742 758.561 182.876 757.337 187.866C754.733 198.665 748.845 208.456 740.438 215.966C732.031 223.477 721.494 228.362 710.192 229.987C698.89 231.613 687.346 229.903 677.057 225.081C666.768 220.258 658.21 212.545 652.492 202.943C652.492 204.332 652.596 205.729 652.636 207.117C653.012 221.488 653.483 239.366 646.106 255.335C641.11 266.16 633.061 274.951 625.108 282.827C619.936 287.956 614.573 292.915 609.074 297.718C603.667 304.766 596.609 310.464 588.483 314.339C579.451 321.095 570.099 327.421 560.428 333.319L554.553 336.997C549.125 340.263 543.562 343.616 538.103 347.084C539.062 346.991 540.013 346.89 540.988 346.851C553.073 346.302 565.024 349.496 575.116 355.972C585.208 362.448 592.918 371.87 597.132 382.879L561.499 411.038L600.665 402.216C600.654 411.577 598.199 420.782 593.53 428.972C588.86 437.162 582.128 444.07 573.963 449.049C565.798 454.028 556.466 456.917 546.838 457.446C537.211 457.974 527.603 456.125 518.911 452.071C519.791 453.141 520.678 454.205 521.557 455.268C523.308 457.386 525.05 459.489 526.753 461.576C549.933 490.077 556.391 517.142 544.905 537.775L530.949 530.45C542.139 510.368 525.354 484.668 514.299 471.12C512.629 469.072 510.918 467.008 509.192 464.913C494.381 447.066 477.595 426.798 478.019 401.96C478.618 364.559 516.098 342.002 546.184 323.906Z" fill="#F2F2F2"/>
<path d="M364.085 546C565.164 546 728.171 538.704 728.171 529.705C728.171 520.705 565.164 513.41 364.085 513.41C163.007 513.41 0 520.705 0 529.705C0 538.704 163.007 546 364.085 546Z" fill="#3F3D56"/>
<path d="M658.223 523.629C660.621 519.354 657.903 514.116 654.802 510.298C651.701 506.481 647.92 502.539 648 497.658C648.112 490.674 655.745 486.554 661.852 482.853C666.374 480.103 670.546 476.845 674.281 473.146C675.849 471.722 677.145 470.041 678.11 468.18C679.365 465.448 679.333 462.344 679.253 459.349C678.986 449.386 678.48 439.433 677.734 429.491" stroke="#3F3D56" stroke-width="4" stroke-miterlimit="10"/>
<path d="M689.332 428.963C689.243 427.14 688.684 425.368 687.706 423.809C686.729 422.25 685.364 420.954 683.737 420.039L681.227 424.866L681.299 419.031C679.582 418.531 677.767 418.44 676.007 418.763C674.246 419.087 672.591 419.816 671.181 420.89C669.771 421.963 668.647 423.35 667.904 424.933C667.161 426.516 666.821 428.25 666.912 429.987C667.051 432.868 668.365 435.577 670.562 437.519C671.65 438.48 672.923 439.224 674.307 439.707C675.691 440.191 677.16 440.406 678.629 440.338C680.099 440.271 681.541 439.923 682.872 439.315C684.203 438.707 685.398 437.851 686.388 436.794C687.378 435.738 688.144 434.503 688.642 433.159C689.141 431.815 689.362 430.389 689.292 428.963H689.332Z" fill="#57B793"/>
<path d="M669.325 502.678C668.151 504.894 666.228 506.649 663.878 507.652C661.528 508.654 658.895 508.842 656.42 508.184C653.945 507.526 651.778 506.062 650.282 504.037C648.787 502.012 648.054 499.55 648.205 497.063C648.357 494.576 649.385 492.215 651.117 490.377C652.848 488.538 655.178 487.333 657.716 486.963C660.254 486.593 662.846 487.082 665.057 488.347C667.268 489.612 668.964 491.576 669.861 493.91L662.859 499.443L670.564 497.705C670.565 499.435 670.141 501.14 669.325 502.678Z" fill="#57B793"/>
<path d="M663.786 481.503C662.314 481.571 660.843 481.357 659.457 480.873C658.07 480.388 656.796 479.642 655.707 478.678C654.619 477.715 653.737 476.551 653.112 475.256C652.488 473.96 652.133 472.557 652.068 471.128C651.979 469.424 652.311 467.724 653.036 466.17C653.707 464.714 654.699 463.419 655.942 462.376C657.185 461.333 658.649 460.568 660.229 460.133L660.173 464.626L662.715 459.737C665.688 459.602 668.595 460.62 670.795 462.565C672.996 464.511 674.31 467.225 674.449 470.112C674.588 472.998 673.54 475.82 671.536 477.956C669.532 480.092 666.735 481.368 663.762 481.503H663.786Z" fill="#57B793"/>
<path d="M691.019 463.881C688.051 464.017 685.149 463.002 682.951 461.061C680.754 459.12 679.441 456.411 679.301 453.53C679.161 450.648 680.206 447.831 682.205 445.698C684.205 443.565 686.996 442.29 689.964 442.154C692.061 442.054 694.146 442.533 695.974 443.535L693.992 448.812L698.069 445.01C700.256 446.951 701.561 449.655 701.698 452.529C701.748 453.535 701.652 454.544 701.41 455.524C700.85 457.825 699.533 459.886 697.658 461.394C695.782 462.902 693.452 463.775 691.019 463.881Z" fill="#57B793"/>
<path opacity="0.1" d="M687.821 431.834C685.232 432.113 682.714 432.897 680.116 433.052C677.518 433.207 674.665 432.602 673.018 430.639C672.131 429.584 671.691 428.249 670.94 427.101C670.232 426.027 669.263 425.14 668.119 424.517C667.442 425.89 667.07 427.386 667.027 428.908C666.984 430.43 667.271 431.944 667.87 433.351C668.469 434.759 669.366 436.028 670.502 437.077C671.639 438.126 672.99 438.932 674.468 439.442C675.946 439.951 677.518 440.153 679.081 440.035C680.645 439.917 682.165 439.481 683.544 438.756C684.923 438.031 686.13 437.032 687.086 435.825C688.041 434.618 688.725 433.229 689.092 431.749C688.661 431.764 688.237 431.795 687.821 431.834Z" fill="black"/>
<path opacity="0.1" d="M691.019 463.881C689.084 463.976 687.157 463.582 685.426 462.738C683.695 461.893 682.22 460.627 681.144 459.062C680.069 457.498 679.43 455.69 679.29 453.814C679.151 451.938 679.515 450.06 680.348 448.362C681.238 448.945 682.004 449.691 682.602 450.558C683.401 451.729 683.881 453.079 684.824 454.158C686.567 456.152 689.556 456.804 692.266 456.68C694.975 456.556 697.581 455.819 700.259 455.578C700.626 455.578 701.01 455.516 701.386 455.508C700.831 457.808 699.518 459.87 697.647 461.381C695.777 462.892 693.45 463.769 691.019 463.881Z" fill="black"/>
<path opacity="0.1" d="M663.786 481.503C662.314 481.571 660.843 481.357 659.457 480.873C658.07 480.388 656.796 479.642 655.707 478.678C654.619 477.715 653.737 476.551 653.112 475.256C652.488 473.96 652.133 472.557 652.068 471.128C651.979 469.424 652.311 467.724 653.036 466.17C653.966 466.76 654.778 467.51 655.434 468.381C656.305 469.576 656.848 470.95 657.831 472.052C659.726 474.1 662.907 474.822 665.777 474.752C668.646 474.682 671.228 474.03 673.993 473.829C673.311 475.971 671.965 477.857 670.138 479.23C668.312 480.604 666.094 481.397 663.786 481.503Z" fill="black"/>
<path opacity="0.1" d="M669.326 502.678C668.722 503.982 667.86 505.158 666.788 506.138C665.717 507.119 664.457 507.884 663.08 508.392C661.704 508.9 660.238 509.139 658.766 509.097C657.294 509.054 655.845 508.731 654.502 508.145C653.159 507.559 651.948 506.722 650.938 505.682C649.929 504.642 649.14 503.418 648.617 502.082C648.094 500.746 647.847 499.323 647.891 497.894C647.935 496.465 648.268 495.059 648.871 493.755C649.792 494.349 650.621 495.068 651.333 495.889C652.396 497.154 653.1 498.581 654.338 499.769C656.632 501.949 660.333 502.872 663.626 502.935C665.53 502.959 667.433 502.873 669.326 502.678Z" fill="black"/>
<path d="M641.31 518.702C641.31 518.702 650.158 518.438 652.828 516.591C655.497 514.745 666.416 512.541 667.111 515.505C667.807 518.469 680.42 530.248 670.421 530.295C660.421 530.341 647.193 528.743 644.531 527.191C641.869 525.639 641.31 518.702 641.31 518.702Z" fill="#656380"/>
<path opacity="0.2" d="M670.596 529.263C660.605 529.34 647.368 527.711 644.707 526.159C642.685 524.964 641.869 520.657 641.605 518.671H641.31C641.31 518.671 641.869 525.6 644.507 527.206C647.145 528.813 660.397 530.372 670.397 530.31C673.282 530.31 674.281 529.286 674.225 527.812C673.85 528.688 672.747 529.247 670.596 529.263Z" fill="black"/>
<path d="M155.394 499.691C149.591 489.262 156.193 476.49 163.738 467.194C171.284 457.898 180.524 448.23 180.324 436.381C180.036 419.357 161.428 409.308 146.561 400.284C135.529 393.586 125.353 385.645 116.244 376.625C112.591 373.001 109.05 369.137 106.924 364.512C103.854 357.854 103.934 350.289 104.134 342.995C104.773 318.682 106.01 294.415 107.843 270.195" stroke="#3F3D56" stroke-width="4" stroke-miterlimit="10"/>
<path d="M79.5712 268.868C79.7901 264.426 81.1549 260.109 83.5404 256.313C85.9258 252.517 89.2554 249.363 93.2234 247.141L99.3461 258.897L99.1623 244.666C104.725 243.075 110.664 243.241 116.123 245.14C121.581 247.04 126.277 250.574 129.532 255.234C132.786 259.893 134.431 265.435 134.229 271.061C134.027 276.687 131.989 282.105 128.408 286.533C124.827 290.961 119.889 294.17 114.308 295.696C108.726 297.221 102.789 296.986 97.3543 295.022C91.9195 293.059 87.2682 289.47 84.0718 284.773C80.8754 280.076 79.2993 274.514 79.5712 268.891V268.868Z" fill="#57B793"/>
<path d="M128.345 448.548C131.095 453.75 135.537 457.925 140.983 460.424C146.428 462.923 152.571 463.607 158.457 462.368C164.344 461.13 169.644 458.038 173.535 453.575C177.425 449.111 179.688 443.525 179.972 437.685C180.163 434.013 179.556 430.343 178.19 426.914C176.193 421.885 172.667 417.565 168.08 414.528C163.493 411.491 158.062 409.881 152.51 409.912C146.958 409.943 141.547 411.614 136.996 414.702C132.446 417.791 128.971 422.15 127.034 427.201L144.115 440.688L125.324 436.443C125.316 440.655 126.352 444.807 128.345 448.548Z" fill="#57B793"/>
<path d="M141.845 397.009C148.551 397.307 155.136 395.2 160.345 391.09C165.555 386.98 169.025 381.154 170.097 374.721C171.168 368.288 169.765 361.697 166.154 356.203C162.544 350.709 156.979 346.696 150.518 344.927L150.662 355.86L144.507 343.965H144.435C137.188 343.637 130.104 346.117 124.74 350.859C119.377 355.601 116.174 362.218 115.836 369.253C115.498 376.288 118.052 383.166 122.938 388.372C127.823 393.579 134.638 396.689 141.885 397.017L141.845 397.009Z" fill="#57B793"/>
<path d="M75.4548 354.122C79.6889 354.322 83.913 353.564 87.7937 351.908C91.6743 350.252 95.1054 347.743 97.8159 344.579C100.527 341.415 102.442 337.683 103.412 333.676C104.382 329.67 104.38 325.5 103.405 321.495C102.431 317.49 100.511 313.76 97.7963 310.599C95.082 307.438 91.6481 304.932 87.7655 303.28C83.8829 301.629 79.6579 300.875 75.4241 301.08C71.1902 301.285 67.0634 302.442 63.3692 304.461L68.1651 317.319L58.2617 308.03C55.6142 310.369 53.4679 313.192 51.9455 316.337C50.423 319.482 49.5544 322.887 49.3893 326.358C49.2624 328.815 49.4965 331.276 50.0847 333.668C51.4442 339.293 54.6572 344.334 59.236 348.026C63.8147 351.717 69.5091 353.858 75.4548 354.122Z" fill="#57B793"/>
<path opacity="0.1" d="M83.2481 275.945C89.5626 276.62 95.7013 278.521 102.032 278.901C108.362 279.281 115.324 277.815 119.329 273.035C121.487 270.459 122.566 267.2 124.388 264.391C126.115 261.774 128.482 259.612 131.279 258.098C133.02 261.463 134.004 265.148 134.166 268.911C134.327 272.673 133.663 276.425 132.216 279.919C130.77 283.413 128.575 286.569 125.776 289.176C122.977 291.783 119.64 293.783 115.984 295.042C112.328 296.301 108.439 296.791 104.573 296.48C100.708 296.168 96.9547 295.062 93.5633 293.234C90.1718 291.407 87.2194 288.9 84.9022 285.881C82.5849 282.861 80.9557 279.397 80.1227 275.72C81.1858 275.766 82.2249 275.836 83.2481 275.945Z" fill="black"/>
<path opacity="0.1" d="M75.4548 354.122C80.1678 354.333 84.857 353.358 89.0671 351.291C93.2773 349.223 96.8656 346.135 99.4836 342.325C102.102 338.514 103.66 334.112 104.009 329.544C104.357 324.976 103.484 320.399 101.472 316.256C99.3008 317.673 97.4332 319.486 95.9731 321.594C94.0227 324.45 92.8478 327.747 90.5537 330.37C86.2934 335.228 79.0197 336.818 72.4174 336.531C65.8151 336.244 59.4446 334.413 52.8743 333.831C51.9631 333.753 51.0359 333.691 50.1167 333.668C51.4747 339.288 54.6829 344.326 59.2553 348.017C63.8276 351.708 69.5147 353.851 75.4548 354.122Z" fill="black"/>
<path opacity="0.1" d="M141.845 397.009C146.512 397.222 151.158 396.27 155.338 394.245C159.519 392.219 163.095 389.188 165.726 385.44C168.357 381.691 169.954 377.351 170.366 372.833C170.778 368.315 169.99 363.77 168.079 359.631C165.827 361.084 163.868 362.925 162.3 365.063C160.174 367.973 158.847 371.325 156.361 374.01C151.749 378.999 143.996 380.761 137.002 380.598C130.231 380.458 123.709 378.844 116.979 378.34C118.645 383.555 121.926 388.145 126.376 391.486C130.825 394.826 136.227 396.755 141.845 397.009Z" fill="black"/>
<path opacity="0.1" d="M128.345 448.548C131.095 453.75 135.537 457.925 140.983 460.424C146.428 462.923 152.571 463.607 158.457 462.368C164.344 461.13 169.644 458.038 173.535 453.575C177.425 449.111 179.688 443.525 179.972 437.685C180.163 434.013 179.556 430.343 178.19 426.914C175.94 428.349 173.92 430.098 172.195 432.105C169.597 435.209 167.879 438.67 164.874 441.541C159.278 446.864 150.254 449.068 142.221 449.301C137.584 449.316 132.951 449.065 128.345 448.548Z" fill="black"/>
<path d="M344.678 515.195L239.169 536.145L236.771 535.913L144.051 526.834V412.769L257.553 394.146L339.882 403.457L339.906 403.962L339.914 404.21L344.678 515.195Z" fill="#FF8E6E"/>
<path opacity="0.1" d="M344.678 515.195L239.169 536.145L236.771 535.913V418.976L339.906 403.962L344.678 515.195Z" fill="black"/>
<path opacity="0.05" d="M339.914 404.21L339.882 404.233L236.771 418.976L144.051 412.769L257.553 394.146L339.882 403.457L339.906 403.962L339.914 404.21Z" fill="black"/>
<path d="M460.578 519.85L355.069 540.801L352.671 540.568L259.951 531.49V417.424L373.453 398.802L455.782 408.113L455.806 408.617L455.814 408.866L460.578 519.85Z" fill="#3F3D56"/>
<path opacity="0.1" d="M460.578 519.85L355.069 540.801L352.671 540.568V423.632L455.806 408.617L460.578 519.85Z" fill="black"/>
<path opacity="0.05" d="M455.814 408.866L455.782 408.889L352.671 423.632L259.951 417.424L373.453 398.802L455.782 408.113L455.806 408.617L455.814 408.866Z" fill="black"/>
<path d="M387.841 408.113L282.332 429.064L279.934 428.831L187.214 419.752V305.687L300.716 287.064L383.045 296.376L383.069 296.88L383.077 297.128L387.841 408.113Z" fill="#3F3D56"/>
<path opacity="0.1" d="M387.841 408.113L282.332 429.064L279.934 428.831V311.895L383.069 296.88L387.841 408.113Z" fill="black"/>
<path opacity="0.05" d="M383.077 297.128L383.045 297.152L279.934 311.895L187.214 305.687L300.716 287.064L383.045 296.376L383.069 296.88L383.077 297.128Z" fill="black"/>
<path d="M447.789 412.893L392.725 423.834L391.47 423.71L343.079 418.969V359.437L402.316 349.715L445.287 354.58L445.303 354.844V354.968L447.789 412.893Z" fill="#3F3D56"/>
<path opacity="0.1" d="M447.789 412.893L392.725 423.834L391.47 423.71V362.681L445.303 354.844L447.789 412.893Z" fill="black"/>
<path opacity="0.05" d="M445.303 354.968L445.287 354.983L391.47 362.681L343.079 359.437L402.316 349.715L445.287 354.58L445.303 354.844V354.968Z" fill="black"/>
<path d="M299.917 297.276L244.852 308.209L243.597 308.093L195.207 303.351V243.82L254.444 234.098L297.415 238.963L297.431 239.227V239.351L299.917 297.276Z" fill="#3F3D56"/>
<path opacity="0.1" d="M299.917 297.276L244.852 308.209L243.597 308.093V247.064L297.431 239.227L299.917 297.276Z" fill="black"/>
<path opacity="0.05" d="M297.431 239.351L297.415 239.366L243.597 247.064L195.207 243.82L254.444 234.098L297.415 238.963L297.431 239.227V239.351Z" fill="black"/>
<path d="M396.633 294.948L341.569 305.881L340.314 305.765L291.924 301.024V241.492L351.16 231.77L394.131 236.635L394.147 236.899V237.023L396.633 294.948Z" fill="#FF8E6E"/>
<path opacity="0.1" d="M396.633 294.948L341.569 305.881L340.314 305.765V244.736L394.147 236.899L396.633 294.948Z" fill="black"/>
<path opacity="0.05" d="M394.147 237.023L394.131 237.038L340.314 244.736L291.924 241.492L351.16 231.77L394.131 236.635L394.147 236.899V237.023Z" fill="black"/>
<path d="M425.408 235.199L370.344 246.133L369.089 246.016L320.699 241.275V181.744L379.936 172.021L422.907 176.886L422.922 177.15V177.274L425.408 235.199Z" fill="#3F3D56"/>
<path opacity="0.1" d="M425.408 235.199L370.344 246.133L369.089 246.016V184.987L422.922 177.15L425.408 235.199Z" fill="black"/>
<path opacity="0.05" d="M422.922 177.274L422.907 177.29L369.089 184.987L320.699 181.744L379.936 172.021L422.907 176.886L422.922 177.15V177.274Z" fill="black"/>
<path d="M462.912 113.499C462.328 118.542 458.364 122.608 456.893 127.466C454.687 134.799 458.492 142.675 463.735 148.417C467.961 152.979 473.077 156.682 478.788 159.312C484.498 161.941 490.689 163.444 497.002 163.734C498.857 163.889 500.725 163.691 502.502 163.152C504.084 162.527 505.509 161.58 506.682 160.374C510.615 156.533 512.733 151.218 513.572 145.856C514.411 140.494 514.092 135.039 513.764 129.631C513.763 128.512 513.552 127.402 513.14 126.356C512.605 125.362 511.868 124.483 510.974 123.772C508.139 121.243 505.015 119.038 501.662 117.2C500.224 116.424 498.681 115.648 497.762 114.306C497.131 113.237 496.721 112.059 496.555 110.837L495.524 105.747C495.341 104.279 494.825 102.869 494.013 101.619C492.199 99.2445 488.722 98.9186 485.676 98.8022L474.486 98.3754C471.009 98.2435 466.437 97.2736 463.04 97.9409C459.843 98.5539 460.922 101.394 461.497 103.97C462.33 107.086 462.804 110.282 462.912 113.499Z" fill="#FFC0C6"/>
<path opacity="0.1" d="M462.912 113.499C462.328 118.542 458.364 122.608 456.893 127.466C454.687 134.799 458.492 142.675 463.735 148.417C467.961 152.979 473.077 156.682 478.788 159.312C484.498 161.941 490.689 163.444 497.002 163.734C498.857 163.889 500.725 163.691 502.502 163.152C504.084 162.527 505.509 161.58 506.682 160.374C510.615 156.533 512.733 151.218 513.572 145.856C514.411 140.494 514.092 135.039 513.764 129.631C513.763 128.512 513.552 127.402 513.14 126.356C512.605 125.362 511.868 124.483 510.974 123.772C508.139 121.243 505.015 119.038 501.662 117.2C500.224 116.424 498.681 115.648 497.762 114.306C497.131 113.237 496.721 112.059 496.555 110.837L495.524 105.747C495.341 104.279 494.825 102.869 494.013 101.619C492.199 99.2445 488.722 98.9186 485.676 98.8022L474.486 98.3754C471.009 98.2435 466.437 97.2736 463.04 97.9409C459.843 98.5539 460.922 101.394 461.497 103.97C462.33 107.086 462.804 110.282 462.912 113.499Z" fill="black"/>
<path d="M533.978 340.667L529.231 391.197C527.992 404.45 526.729 417.758 524.299 430.841C523.5 435.349 522.476 439.834 521.309 444.28C518.064 456.626 513.356 468.692 511.838 481.347C511.79 481.712 511.75 482.123 511.71 482.457C511.398 485.251 511.126 488.075 510.111 490.682C509.312 492.614 508.185 494.376 507.361 496.285C505.763 500.102 505.507 504.323 505.307 508.459C499.545 505.302 493.236 503.198 486.691 502.252C483.494 501.794 480.017 501.476 477.899 499.148C475.501 496.618 475.781 492.746 476.18 489.348C477.438 478.795 478.69 468.247 479.937 457.704C480.353 453.168 481.155 448.673 482.335 444.265C482.767 442.798 483.286 441.355 483.814 439.912C484.541 437.925 485.277 435.939 485.828 433.898C486.593 430.619 487.122 427.293 487.411 423.942C488.698 413.327 490.248 402.736 491.607 392.128L491.679 391.57C493.717 375.492 495.268 359.337 494.82 343.142C494.756 340.745 494.652 338.347 494.493 335.941C494.269 332.457 493.941 330.611 496.891 328.43C500.176 326.025 504.5 324.341 508.257 322.766C510.279 321.912 532.548 314.23 533.035 315.922C534.069 319.515 534.607 323.225 534.634 326.956C534.679 331.535 534.46 336.112 533.978 340.667Z" fill="#605D82"/>
<path opacity="0.1" d="M524.299 430.841C523.5 435.349 522.476 439.834 521.309 444.28C518.064 456.626 513.356 468.692 511.838 481.348C511.79 481.712 511.75 482.123 511.71 482.457C501.782 468.692 493.422 453.887 483.734 439.974C484.461 437.987 485.197 436.001 485.748 433.96C486.543 430.663 487.098 427.315 487.411 423.942C488.698 413.327 490.248 402.736 491.607 392.128L491.679 391.57C492.24 393.821 493.044 396.008 494.077 398.095C500.583 410.93 516.042 417.417 523.603 429.7C523.854 430.083 524.086 430.463 524.299 430.841Z" fill="black"/>
<path d="M443.744 318.001C444.072 328.291 445.767 338.494 447.461 348.659L450.954 369.61C452.865 381.094 454.863 392.803 460.458 403.085C464.646 410.782 470.673 417.347 476.132 424.245C489.545 441.207 499.624 460.428 512.341 477.887C516.042 482.962 521.325 488.455 527.632 487.392C531.772 486.702 534.778 483.35 538.023 480.773C541.86 477.732 546.48 475.505 549.501 471.687C552.522 467.869 553.114 461.537 549.021 458.822C547.623 457.898 545.92 457.549 544.337 456.959C537.999 454.631 533.891 448.61 531.285 442.527C528.679 436.443 527.088 429.917 523.611 424.261C516.05 411.977 500.583 405.49 494.077 392.648C490.432 385.463 490.08 377.129 489.809 369.16L489.097 348.745C489.017 346.51 488.961 344.19 489.897 342.149C492.382 336.717 499.896 336.205 505.987 335.515C512.894 334.732 519.585 332.683 525.706 329.478C529.215 327.639 532.636 325.295 534.498 321.881C536.208 318.777 536.44 315.123 536.64 311.6L538.75 274.595C538.934 271.413 539.094 268.115 537.951 265.136C535.049 257.64 525.298 255.188 517.057 255.545C501.726 256.212 487.579 262.614 473.095 266.944C469.506 268.015 465.901 268.977 462.2 269.698C459.003 270.327 455.007 270.071 451.937 271.08C446.438 272.88 446.574 284.566 445.799 289.408C444.199 298.856 443.511 308.429 443.744 318.001Z" fill="#605D82"/>
<path d="M525.554 488.96C526.905 490.287 527.344 492.226 527.696 494.058C529.65 504.221 530.666 514.533 530.733 524.871C530.646 525.835 530.843 526.804 531.301 527.664C531.684 528.174 532.2 528.576 532.796 528.828C536.704 530.636 541.236 528.114 544.497 525.344C550.532 520.215 555.64 513.325 555.983 505.542C556.071 503.54 555.84 501.515 556.199 499.536C556.727 496.603 558.493 494.05 560.044 491.489C562.697 487.125 564.842 482.487 566.438 477.662C567.03 475.846 567.43 473.565 565.959 472.3C565.444 471.903 564.855 471.605 564.224 471.423L546.56 465.06C545.025 464.509 541.22 473.999 540.621 475.039C539.142 477.576 537.671 479.012 534.706 479.602C531.74 480.191 528.08 479.338 525.25 480.804C520.454 483.28 522.844 486.314 525.554 488.96Z" fill="#535070"/>
<path d="M498.313 494.818C497.986 494.184 497.529 493.622 496.97 493.165C496.154 492.661 495.225 492.355 494.261 492.273C490.904 491.714 486.923 491.35 484.597 493.778C482.423 496.052 482.799 499.753 480.984 502.314C480.409 503.09 479.625 503.788 479.13 504.642C478.514 505.948 478.239 507.382 478.331 508.816C478.235 512.766 478.139 516.731 478.426 520.673C478.658 523.978 479.226 527.447 481.36 530.039C484.781 534.198 490.952 534.795 496.419 535.059L500.855 535.284C502.075 535.423 503.311 535.312 504.484 534.958C505.211 534.634 505.863 534.17 506.401 533.596C506.94 533.021 507.353 532.347 507.617 531.614C509.927 526.042 506.274 520.044 504.02 514.457C501.423 508.025 501.886 500.894 498.313 494.818Z" fill="#535070"/>
<path d="M461.633 85.0601C461.576 84.4953 461.661 83.9255 461.881 83.3995C462.528 82.2899 464.223 82.6236 465.502 82.9029C470.641 84.16 476.06 83.0193 481.36 83.3142C486.659 83.609 492.622 86.1774 493.685 91.2211C497.53 88.5798 500.843 85.2765 503.461 81.4752C504.932 79.3413 506.21 76.897 506.011 74.3364C505.723 70.6428 502.534 67.8805 499.616 65.5371L490.824 58.5535C489.665 57.5221 488.329 56.6973 486.875 56.117C484.845 55.4419 482.623 55.7678 480.481 55.7678C474.086 55.7678 467.228 52.9356 461.529 55.7678C459.131 56.955 457.349 58.9958 455.622 60.9822L447.765 70.0143C447.17 70.5901 446.736 71.3029 446.502 72.0861C446.278 73.188 446.862 74.2743 447.07 75.3839C447.437 77.4014 446.542 79.5586 447.229 81.4984C448.372 84.7109 452.401 85.1687 454.863 87.0155C455.774 87.6983 457.213 90.0339 458.308 90.0029C460.234 89.9641 461.577 86.5499 461.633 85.0601Z" fill="#3F3D56"/>
<path d="M474.965 111.699C488.871 111.699 500.144 100.755 500.144 87.256C500.144 73.7568 488.871 62.8135 474.965 62.8135C461.06 62.8135 449.787 73.7568 449.787 87.256C449.787 100.755 461.06 111.699 474.965 111.699Z" fill="#FFC0C6"/>
<path d="M480.864 140.743C480.011 138.373 478.405 136.329 476.278 134.903C474.15 133.478 471.611 132.746 469.027 132.812C468.285 132.95 467.518 132.854 466.836 132.541C466.45 132.254 466.14 131.882 465.933 131.454C464.407 128.779 463.177 125.954 462.264 123.028C461.865 121.732 461.313 120.203 459.962 119.869C458.875 119.598 457.764 120.281 457.037 121.111C456.392 122.002 455.693 122.854 454.943 123.664C451.746 126.411 446.15 123.904 442.801 126.426C442.25 126.837 441.794 127.365 441.203 127.745C440.627 128.086 440.006 128.347 439.356 128.521C432.855 130.574 426.482 132.992 420.269 135.761C422.507 148.828 424.793 162.143 430.036 174.365C432.53 180.184 435.352 185.888 437.35 191.886C441.778 205.178 441.97 219.401 442.026 233.376C442.026 242.936 442.026 252.697 438.829 261.745C438.109 263.793 437.23 265.826 437.03 267.952C436.83 270.079 437.486 272.484 439.284 273.757C440.325 274.423 441.52 274.831 442.761 274.944C448.285 275.72 453.848 274.307 459.283 273.081C473.854 269.807 488.722 267.929 503.549 266.098L528.407 262.994C530.191 262.873 531.936 262.434 533.555 261.698C538.103 259.285 538.534 252.643 535.705 248.422C534.354 246.396 532.444 244.736 531.301 242.594C530.158 240.453 530.07 237.442 532.028 235.96C536.025 232.934 534.826 227.323 535.018 222.419C535.55 208.701 535.478 194.992 534.802 181.294C534.598 178.453 534.55 175.604 534.658 172.758C534.938 167.932 536.169 163.206 537.399 158.512L544.953 129.646C542.979 126.62 539.198 124.696 535.625 123.827C532.052 122.958 528.319 122.702 524.794 121.639C517.601 119.466 511.142 113.957 503.605 114.469C503.033 114.479 502.471 114.611 501.958 114.857C500.264 115.796 500.527 118.17 500.423 120.063C500.184 124.261 497.002 127.761 493.501 130.221C490 132.68 485.988 134.465 482.767 137.266C482.207 137.676 481.747 138.199 481.418 138.8C481.09 139.4 480.901 140.063 480.864 140.743Z" fill="#3F3D56"/>
<path d="M381.103 168.126C379.435 169.178 377.662 170.065 375.811 170.772C374.053 171.447 372.174 171.982 370.736 173.162C370.023 173.762 369.425 174.479 368.969 175.28C368.117 176.748 367.687 178.41 367.722 180.094C367.758 181.778 368.258 183.421 369.171 184.854C370.083 186.286 371.375 187.454 372.912 188.237C374.448 189.019 376.173 189.387 377.905 189.302C380.215 189.185 382.398 188.277 384.516 187.385L402.276 179.882C405.282 178.617 408.527 177.143 409.95 174.271C410.113 174.003 410.175 173.687 410.126 173.379C409.988 173.041 409.726 172.764 409.39 172.603C405.388 170.075 401.887 166.869 399.055 163.137C398.328 162.174 397.457 159.909 396.401 159.327C392.645 157.301 384.116 166.233 381.103 168.126Z" fill="#FFC0C6"/>
<path d="M570.954 162.035L577.501 169.298C578.908 170.85 580.314 172.401 581.593 174.078C584.74 178.285 587.264 182.9 589.091 187.789C590.514 191.412 591.697 195.277 591.201 199.125C590.869 201.098 590.32 203.031 589.562 204.891C588.363 208.465 586.874 211.942 585.11 215.288C583.637 217.828 581.973 220.258 580.131 222.559C575.06 229.081 569.512 235.24 563.529 240.988C561.291 243.137 560.332 246.621 559.38 249.524C557.582 254.885 553.306 259.068 549.173 263.025C547.844 264.389 546.374 265.617 544.785 266.688C542.406 268.178 539.623 268.945 536.792 268.891C535.557 268.898 534.334 268.652 533.203 268.17C530.374 266.866 528.935 263.692 528.639 260.666C528.378 257.916 528.851 255.148 530.014 252.627C533.771 244.55 543.418 241.05 550.236 235.153C554.233 231.7 557.294 227.355 560.316 223.063C562.362 220.381 564.071 217.472 565.407 214.396C566.926 210.446 566.334 205.775 567.669 201.771C568.229 200.072 569.268 198.543 569.835 196.86C570.403 195.176 570.595 193.181 569.532 191.73C568.735 190.803 567.717 190.078 566.566 189.62C562.21 187.478 557.334 184.716 556.503 180.037C556.17 177.446 556.868 174.829 558.453 172.72C560.03 170.637 561.876 168.76 563.945 167.133C565.839 165.472 569.044 163.633 570.954 162.035Z" fill="#FFC0C6"/>
<path d="M376.898 178.26C375.747 175.994 374.3 173.682 371.966 172.557C370.831 172.081 369.607 171.836 368.37 171.836C367.133 171.836 365.909 172.081 364.773 172.557C362.511 173.506 360.392 174.748 358.474 176.25L352.831 180.293C351.552 181.108 350.42 182.123 349.482 183.296C348.587 184.719 347.995 186.302 347.739 187.952C346.94 191.73 346.293 195.618 346.852 199.443C347.747 205.651 351.584 211.021 355.804 215.738C358.442 218.672 361.703 221.636 365.716 221.768C367.45 221.822 369.377 221.155 370.096 219.626C370.347 219.019 370.48 218.371 370.488 217.717C370.919 210.827 368.378 204.099 365.42 197.822C364.621 196.115 363.758 194.345 363.822 192.475C363.797 192.158 363.881 191.841 364.061 191.575C364.315 191.317 364.655 191.155 365.021 191.117C369.073 190.342 376.059 193.399 378.896 189.03C380.735 186.144 378.209 180.828 376.898 178.26Z" fill="#FFC0C6"/>
<path d="M460.306 77.3704C460.256 76.805 460.344 76.2362 460.562 75.7098C461.209 74.5925 462.904 74.9339 464.183 75.2132C469.322 76.4703 474.742 75.3296 480.041 75.6245C485.341 75.9193 491.295 78.4877 492.366 83.5314C496.207 80.8858 499.52 77.5833 502.142 73.7855C503.613 71.6438 504.892 69.1996 504.692 66.6389C504.404 62.9454 501.207 60.183 498.297 57.8474L489.505 50.8638C488.35 49.8325 487.015 49.0077 485.564 48.4273C483.526 47.7522 481.312 48.0781 479.17 48.0781C472.775 48.0781 465.917 45.2459 460.218 48.0781C457.82 49.2653 456.038 51.3061 454.311 53.2925L446.446 62.3246C445.855 62.9017 445.423 63.6143 445.191 64.3964C444.967 65.4983 445.551 66.5846 445.759 67.6942C446.126 69.7117 445.231 71.8688 445.919 73.801C447.062 77.0212 451.09 77.479 453.552 79.3258C454.463 80.0086 455.902 82.3442 456.997 82.3132C458.891 82.2744 460.234 78.8602 460.306 77.3704Z" fill="#3F3D56"/>
<path d="M406.832 144.351C405.818 144.99 404.925 145.796 404.195 146.733C403.275 148.091 403.084 149.837 402.292 151.233C400.598 154.291 396.625 155.385 394.155 157.891C393.755 158.234 393.475 158.69 393.356 159.195C393.341 159.877 393.576 160.543 394.019 161.073L405.961 179.292C409.958 179.633 413.746 177.212 417.727 177.538C419.206 177.655 420.732 178.151 422.155 177.724C423.172 177.285 424.126 176.719 424.993 176.041C427.391 174.582 430.524 174.411 432.514 172.495C434.504 170.578 434.672 167.761 434.648 165.146C434.684 162.877 434.445 160.611 433.937 158.395C432.178 151.412 426.671 146.027 423.218 139.835C421.532 136.816 420.62 135.055 417.064 137.127C413.507 139.198 410.197 141.961 406.832 144.351Z" fill="#3F3D56"/>
<path d="M551.835 135.14C554.079 136.555 556.104 138.274 557.846 140.246C559.66 142.519 560.691 145.313 562.442 147.641C564.192 149.969 566.438 151.645 568.357 153.724C571.274 156.875 573.249 160.708 575.183 164.518C570.448 170.499 565.287 176.151 559.74 181.434C559.121 182.14 558.305 182.657 557.39 182.923C556.77 182.988 556.143 182.902 555.565 182.673C554.988 182.444 554.478 182.08 554.081 181.612C553.218 180.743 552.61 179.657 551.787 178.749C549.847 176.807 547.262 175.594 544.489 175.327C541.74 175.067 538.973 175.028 536.217 175.21C535.612 175.28 534.999 175.18 534.45 174.923C534.042 174.651 533.712 174.283 533.491 173.852C530.294 168.514 531.293 161.81 532.436 155.711L535.05 141.744C535.431 139.077 536.164 136.469 537.232 133.984C538.223 131.928 540.429 128.436 543.163 129.057C545.896 129.677 549.525 133.526 551.835 135.14Z" fill="#3F3D56"/>
<path d="M323.896 237.527L268.832 248.46L267.577 248.344L219.187 243.603V184.072L278.423 174.349L321.394 179.214L321.41 179.478V179.602L323.896 237.527Z" fill="#FF8E6E"/>
<path opacity="0.1" d="M323.896 237.527L268.832 248.46L267.577 248.344V187.315L321.41 179.478L323.896 237.527Z" fill="black"/>
<path opacity="0.05" d="M321.41 179.602L321.394 179.618L267.577 187.315L219.187 184.072L278.423 174.349L321.394 179.214L321.41 179.478V179.602Z" fill="black"/>
<path d="M352.671 178.555L297.607 189.496L296.352 189.372L247.962 184.63V125.099L307.198 115.377L350.169 120.242L350.185 120.506V120.63L352.671 178.555Z" fill="#3F3D56"/>
<path opacity="0.1" d="M352.671 178.555L297.607 189.496L296.352 189.372V128.343L350.185 120.506L352.671 178.555Z" fill="black"/>
<path opacity="0.05" d="M350.185 120.63L350.169 120.645L296.352 128.343L247.962 125.099L307.198 115.377L350.169 120.242L350.185 120.506V120.63Z" fill="black"/>
</g>
<defs>
<clipPath id="clip0">
<rect width="759" height="546" fill="white"/>
</clipPath>
</defs>
</svg>
