<svg width="298" height="216" viewBox="0 0 298 216" fill="none" xmlns="http://www.w3.org/2000/svg">
<g clip-path="url(#clip0)">
<path d="M286.195 0.000383367H196.742C192.425 0.000193574 188.237 1.31853 184.865 3.73869C181.494 6.15884 179.14 9.53677 178.191 13.3172L132.993 193.3C132.5 195.264 132.491 197.3 132.967 199.266C133.443 201.233 134.393 203.082 135.749 204.684C137.106 206.286 138.836 207.603 140.819 208.541C142.802 209.479 144.99 210.017 147.229 210.116L239.188 214.183C244.112 214.401 248.956 213.003 252.816 210.25C256.676 207.497 259.289 203.577 260.167 199.222L285.807 71.9719L287.715 72.4612L292.622 48.3424L290.659 47.9019L297.816 12.3817C298.123 10.8602 298.052 9.29678 297.608 7.80278C297.164 6.30879 296.359 4.92104 295.25 3.73849C294.14 2.55594 292.754 1.6077 291.189 0.96139C289.624 0.315076 287.92 -0.0133992 286.198 -0.000617347L286.195 0.000383367Z" fill="#3F3D56"/>
<path d="M208.517 3.88037H198.076C195.077 3.8804 192.169 4.80109 189.833 6.48961C187.498 8.17813 185.876 10.5329 185.237 13.1631L141.851 191.678C141.601 192.706 141.602 193.77 141.852 194.797C142.102 195.825 142.597 196.792 143.301 197.633C144.006 198.473 144.905 199.167 145.936 199.667C146.967 200.167 148.106 200.462 149.275 200.53L240.935 205.924C243.521 206.076 246.079 205.368 248.12 203.935C250.162 202.502 251.544 200.445 252.004 198.155L289.024 13.6427C289.264 12.4485 289.209 11.2216 288.862 10.0486C288.516 8.87568 287.887 7.78524 287.02 6.85425C286.154 5.92327 285.07 5.17443 283.845 4.66058C282.621 4.14673 281.286 3.8804 279.934 3.88037H270.029C269.07 3.88035 268.138 4.16406 267.377 4.68759C266.616 5.21112 266.069 5.94526 265.819 6.77636C265.599 7.51033 265.116 8.15866 264.444 8.62091C263.771 9.08316 262.948 9.33354 262.102 9.33325H215.077C213.42 9.33321 211.823 8.7716 210.607 7.76068C209.391 6.74975 208.644 5.36399 208.517 3.88037Z" fill="white"/>
<path d="M259.187 128.677C259.365 128.683 259.539 128.63 259.678 128.53C259.817 128.43 259.911 128.288 259.943 128.13L280.213 27.698C280.233 27.6026 280.229 27.5045 280.202 27.4105C280.175 27.3165 280.126 27.2288 280.058 27.1533C279.991 27.0785 279.906 27.0179 279.81 26.9758C279.713 26.9338 279.608 26.9113 279.501 26.91L187.28 25.9321H187.272C187.104 25.9334 186.942 25.9857 186.812 26.0804C186.682 26.1751 186.592 26.3066 186.556 26.4535L162.66 123.626C162.637 123.721 162.637 123.819 162.66 123.914C162.682 124.009 162.728 124.098 162.793 124.176C162.857 124.253 162.939 124.317 163.034 124.362C163.129 124.407 163.233 124.433 163.34 124.438L259.187 128.677Z" fill="#E6E6E6"/>
<path d="M179.158 135.171C179.074 135.171 178.993 135.196 178.927 135.243C178.861 135.29 178.815 135.355 178.796 135.429L177.933 138.752C177.92 138.798 177.92 138.847 177.93 138.894C177.941 138.942 177.963 138.986 177.995 139.025C178.027 139.064 178.068 139.096 178.115 139.12C178.162 139.143 178.214 139.157 178.267 139.16L227.054 142.273C227.145 142.278 227.234 142.254 227.306 142.204C227.378 142.155 227.428 142.084 227.446 142.004L228.276 138.159C228.286 138.113 228.285 138.065 228.273 138.019C228.261 137.972 228.237 137.929 228.205 137.891C228.173 137.854 228.132 137.823 228.085 137.801C228.038 137.779 227.986 137.766 227.934 137.763L179.181 135.171L179.158 135.171Z" fill="#E6E6E6"/>
<path d="M238.431 154.616C238.519 154.622 238.607 154.6 238.678 154.554C238.75 154.508 238.801 154.44 238.822 154.363L239.879 150.51C239.892 150.463 239.894 150.414 239.883 150.366C239.873 150.319 239.851 150.273 239.819 150.234C239.787 150.195 239.746 150.162 239.699 150.139C239.651 150.115 239.599 150.101 239.545 150.098L177.241 146.186C177.156 146.18 177.072 146.2 177.002 146.243C176.932 146.287 176.881 146.35 176.858 146.424L175.759 149.753C175.744 149.8 175.74 149.85 175.749 149.9C175.757 149.949 175.778 149.995 175.809 150.036C175.841 150.077 175.882 150.111 175.929 150.136C175.977 150.161 176.031 150.176 176.086 150.18L238.431 154.616Z" fill="#E6E6E6"/>
<path d="M235.086 166.965C235.174 166.971 235.261 166.949 235.333 166.903C235.404 166.856 235.455 166.789 235.476 166.712L236.534 162.859C236.547 162.812 236.548 162.763 236.537 162.715C236.527 162.667 236.505 162.622 236.473 162.583C236.441 162.544 236.4 162.511 236.353 162.487C236.306 162.464 236.253 162.45 236.199 162.446L173.895 158.534C173.81 158.528 173.726 158.549 173.656 158.592C173.587 158.636 173.536 158.699 173.512 158.772L172.414 162.102C172.398 162.149 172.394 162.199 172.403 162.248C172.412 162.297 172.432 162.344 172.464 162.385C172.495 162.426 172.536 162.46 172.584 162.485C172.632 162.51 172.685 162.525 172.74 162.529L235.086 166.965Z" fill="#E6E6E6"/>
<path d="M127.062 210.439C127.062 213.232 98.5829 213.53 63.5311 215.496C28.5105 217.461 0 213.232 0 210.439C0 207.646 28.6436 202.026 63.5311 205.382C98.5829 208.753 127.062 207.646 127.062 210.439Z" fill="#E6E6E6"/>
<path d="M206.391 188.076C206.48 188.084 206.569 188.063 206.642 188.017C206.714 187.97 206.766 187.902 206.787 187.824L209.022 179.797C209.035 179.75 209.037 179.701 209.027 179.653C209.017 179.606 208.995 179.561 208.964 179.522C208.933 179.482 208.892 179.449 208.845 179.425C208.798 179.401 208.746 179.387 208.693 179.383L170.432 176.494C170.342 176.488 170.254 176.512 170.182 176.559C170.11 176.607 170.059 176.676 170.038 176.754L168.131 184.458C168.119 184.504 168.119 184.552 168.13 184.599C168.141 184.645 168.162 184.689 168.193 184.727C168.224 184.765 168.264 184.797 168.31 184.821C168.356 184.844 168.407 184.858 168.459 184.863L206.391 188.076Z" fill="#535070"/>
<path d="M51.9021 155.365C52.3839 155.069 52.7874 154.681 53.0842 154.23C53.381 153.778 53.5639 153.274 53.62 152.752C53.6761 152.23 53.604 151.703 53.4088 151.209C53.2136 150.715 52.9 150.265 52.4903 149.892L54.0394 118.846L46.1524 119.641L46.6107 150.008C45.9567 150.667 45.5948 151.519 45.5938 152.402C45.5927 153.284 45.9525 154.137 46.6051 154.797C47.2576 155.458 48.1573 155.88 49.1338 155.985C50.1102 156.089 51.0954 155.868 51.9025 155.364L51.9021 155.365Z" fill="#A0616A"/>
<path d="M66.291 207.918L70.7801 208.626L75.2168 193.419L69.3351 192.374L66.291 207.918Z" fill="#A0616A"/>
<path d="M78.7061 213.735L64.5979 211.508L65.5561 206.615L74.2134 207.981C75.6591 208.209 76.9446 208.944 77.7871 210.023C78.6297 211.102 78.9602 212.437 78.7061 213.735L78.7061 213.735Z" fill="#2F2E41"/>
<path d="M53.9695 209.935H58.5274L60.6955 194.152H53.9688L53.9695 209.935Z" fill="#A0616A"/>
<path d="M67.3164 213.735L52.9918 213.736L52.9915 208.767L61.7816 208.767C63.2494 208.767 64.6572 209.29 65.6952 210.222C66.7331 211.154 67.3163 212.417 67.3164 213.735Z" fill="#2F2E41"/>
<path d="M72.9851 204.278C72.914 204.278 72.843 204.274 72.7724 204.267L67.4078 203.87C67.1636 203.845 66.9277 203.775 66.7146 203.664C66.5014 203.554 66.3154 203.406 66.1679 203.23C66.0204 203.053 65.9144 202.851 65.8564 202.637C65.7983 202.422 65.7895 202.199 65.8304 201.982L71.156 178.392L67.81 162.547C67.7828 162.418 67.7046 162.303 67.5898 162.222C67.4751 162.141 67.3316 162.099 67.1858 162.106C67.04 162.113 66.9017 162.166 66.7965 162.257C66.6913 162.348 66.6262 162.47 66.6133 162.6L61.6833 202.86C61.6373 203.284 61.4096 203.676 61.0482 203.952C60.6869 204.228 60.2201 204.368 59.7464 204.341L54.6922 204.172C54.2493 204.144 53.8333 203.971 53.5226 203.686C53.2119 203.402 53.0281 203.025 53.0059 202.627L53.4096 153.976L79.6122 151.035L81.4428 176.414L81.4354 176.441L74.7469 203.033C74.6506 203.388 74.4247 203.703 74.1053 203.929C73.7859 204.154 73.3915 204.277 72.9851 204.278Z" fill="#2F2E41"/>
<path d="M62.0509 98.7301C67.0938 98.7301 71.1819 95.0601 71.1819 90.5328C71.1819 86.0055 67.0938 82.3354 62.0509 82.3354C57.008 82.3354 52.9199 86.0055 52.9199 90.5328C52.9199 95.0601 57.008 98.7301 62.0509 98.7301Z" fill="#A0616A"/>
<path d="M70.6546 157.678C69.2265 157.686 67.8258 157.326 66.6183 156.641C62.1942 154.16 57.1713 155.146 54.5704 155.955C54.3123 156.036 54.037 156.064 53.7653 156.036C53.4936 156.008 53.2323 155.926 53.0012 155.794C52.7727 155.666 52.5796 155.492 52.4364 155.287C52.2932 155.081 52.2036 154.85 52.1744 154.609L47.4451 116.686C46.6525 110.332 50.9159 104.358 57.5825 102.481C57.833 102.411 58.0877 102.344 58.3464 102.281C60.421 101.776 62.5936 101.686 64.7114 102.016C66.8292 102.346 68.8407 103.088 70.6044 104.191C72.401 105.306 73.9035 106.761 75.0061 108.454C76.1087 110.147 76.7848 112.036 76.9865 113.988L80.9685 152.165C80.9957 152.412 80.9585 152.662 80.86 152.894C80.7615 153.126 80.6043 153.334 80.4008 153.502C79.0045 154.661 74.953 157.678 70.6546 157.678Z" fill="#535070"/>
<path d="M56.2514 124.818L45.5816 123.765C45.278 123.735 44.9851 123.647 44.723 123.506C44.4608 123.365 44.2356 123.175 44.0625 122.949C43.8894 122.723 43.7727 122.467 43.7201 122.197C43.6676 121.926 43.6806 121.649 43.7581 121.384L46.4742 112.09C46.5542 111.394 46.7872 110.718 47.1598 110.103C47.5323 109.488 48.0369 108.945 48.6445 108.506C49.2522 108.067 49.9507 107.74 50.6998 107.545C51.4489 107.349 52.2336 107.289 53.0087 107.368C53.7839 107.446 54.5339 107.662 55.2156 108.002C55.8974 108.343 56.4972 108.801 56.9804 109.351C57.4636 109.9 57.8208 110.531 58.0311 111.205C58.2414 111.879 58.3008 112.584 58.2057 113.279L58.6091 122.85C58.6207 123.124 58.5663 123.397 58.4497 123.651C58.333 123.904 58.1569 124.132 57.9333 124.319C57.7097 124.506 57.4438 124.647 57.1538 124.733C56.8638 124.82 56.5565 124.849 56.2529 124.819L56.2514 124.818Z" fill="#535070"/>
<path d="M80.9242 154.036C81.3624 153.69 81.7108 153.261 81.9447 152.781C82.1786 152.301 82.2924 151.78 82.278 151.256C82.2636 150.732 82.1214 150.217 81.8614 149.748C81.6014 149.279 81.23 148.866 80.7732 148.54L78.1437 117.553L70.415 119.115L74.9506 149.291C74.3898 150.016 74.1448 150.901 74.2623 151.778C74.3797 152.654 74.8513 153.461 75.5877 154.046C76.3241 154.632 77.2741 154.954 78.2574 154.952C79.2408 154.95 80.1892 154.624 80.9227 154.036H80.9242Z" fill="#A0616A"/>
<path d="M67.4528 122.87C67.2291 122.684 67.0529 122.456 66.9363 122.202C66.8196 121.949 66.7653 121.676 66.7769 121.402L67.1803 111.832C67.0933 111.14 67.1589 110.44 67.3734 109.771C67.5878 109.102 67.9468 108.478 68.43 107.934C68.9132 107.39 69.511 106.936 70.1894 106.599C70.8678 106.263 71.6134 106.049 72.3837 105.971C73.154 105.893 73.9339 105.952 74.6789 106.144C75.4238 106.337 76.1193 106.659 76.7254 107.093C77.3316 107.527 77.8367 108.063 78.2119 108.672C78.587 109.281 78.8248 109.951 78.9118 110.642L81.6279 119.936C81.7055 120.201 81.7184 120.478 81.6659 120.749C81.6134 121.019 81.4966 121.276 81.3235 121.501C81.1505 121.727 80.9252 121.917 80.6631 122.058C80.4009 122.199 80.108 122.287 79.8044 122.317L69.1347 123.37C68.831 123.4 68.5236 123.371 68.2336 123.285C67.9436 123.198 67.6778 123.057 67.4543 122.87L67.4528 122.87Z" fill="#535070"/>
<path d="M61.5072 99.0388C61.3445 99.0388 61.1823 99.0219 61.0239 98.9885L60.9775 98.9784C52.9495 97.877 51.1751 93.7011 50.7858 91.9579C50.3828 90.153 50.8416 88.4108 51.8788 87.7339C51.3134 86.1319 51.4041 84.7098 52.1491 83.5079C53.4503 81.4119 56.2687 80.7044 56.6475 80.6163C58.8997 79.1247 61.5942 80.1203 62.0846 80.3222C66.4413 78.8754 68.1072 80.0796 68.4076 80.3486C70.3549 80.6627 71.542 81.3378 71.9361 82.3565C72.6763 84.2692 70.3356 86.6485 70.2356 86.749L70.1836 86.8011L66.6964 86.9503C66.3655 86.9644 66.0416 87.0409 65.7457 87.1747C65.4499 87.3085 65.1886 87.4966 64.979 87.7269C64.7693 87.9571 64.6159 88.2244 64.5287 88.5113C64.4415 88.7982 64.4225 89.0984 64.4728 89.3923C64.5672 89.7716 64.6863 90.1455 64.8297 90.5121C65.4246 92.1829 65.8707 93.6103 65.2959 94.153C65.1655 94.258 65.0048 94.3279 64.8323 94.3548C64.6597 94.3816 64.4822 94.3643 64.32 94.3049C63.7747 94.174 63.4047 94.2014 63.2203 94.3866C62.9341 94.6733 63.0214 95.3996 63.4664 96.4309C63.6061 96.7571 63.6437 97.1113 63.5751 97.4553C63.5066 97.7993 63.3345 98.1199 63.0776 98.3823C62.8841 98.5872 62.6435 98.752 62.3722 98.8653C62.101 98.9786 61.8056 99.0378 61.5065 99.0388H61.5072Z" fill="#2F2E41"/>
</g>
<defs>
<clipPath id="clip0">
<rect width="298" height="216" fill="white"/>
</clipPath>
</defs>
</svg>
